<svg width="484" height="89" viewBox="0 0 484 89" fill="none" xmlns="http://www.w3.org/2000/svg">
<path d="M467.164 0.50293C488.755 28.6425 488.755 60.3634 467.164 88.5029H456.113C475.248 60.3634 475.248 28.6425 456.113 0.50293H467.164Z" fill="white" fill-opacity="0.1"/>
<path d="M431.59 18.9192V27.7192L420.948 27.5146L426.473 36.5192L418.901 40.9192L413.785 31.7099L408.669 40.9192L401.097 36.5192L406.622 27.5146L395.98 27.7192V18.9192L406.622 19.1239L401.097 10.1192L408.669 5.71924L413.785 14.9285L418.901 5.71924L426.473 10.1192L420.948 19.1239L431.59 18.9192Z" fill="white" fill-opacity="0.1"/>
<path d="M367.784 25.0596H382.314L363.589 51.5619L383.235 79.2921H368.807L356.528 60.9759L344.147 79.2921H329.719L349.57 51.4596L330.742 25.0596H345.17L356.528 42.0456L367.784 25.0596Z" fill="white"/>
<path d="M308.779 25.0661V68.7591H324.537V79.2986H278.184V68.7591H296.909V35.6056H278.184V25.0661H308.779ZM296.295 18.0056V6.64746H308.677V18.0056H296.295Z" fill="white"/>
<path d="M217.34 22.9106H229.721V26.2874L235.349 22.9106H257.554L266.763 36.5199V79.292H254.382V38.7711L251.414 34.3711H231.563L229.721 36.5199V79.292H217.34V22.9106Z" fill="white"/>
<path d="M159.773 52.1796C159.773 34.8866 169.801 23.8354 185.457 23.8354C198.043 23.8354 209.606 32.0215 210.22 51.668V55.2494H172.462C173.28 64.4587 177.885 69.882 185.457 69.882C190.369 69.882 194.769 66.9145 196.815 61.9006L209.401 63.1285C206.332 73.668 196.815 80.5238 185.457 80.5238C169.801 80.5238 159.773 69.4727 159.773 52.1796ZM172.769 46.7564H197.327C195.894 38.0587 190.983 34.4773 185.457 34.4773C178.601 34.4773 174.099 39.082 172.769 46.7564Z" fill="white"/>
<path d="M102.816 0.609863H115.198V26.2936L120.723 22.9168H142.723L152.24 36.3215V79.2982H139.858V38.675L136.891 34.3773H117.244L115.198 36.3215V79.2982H102.816V0.609863Z" fill="white"/>
<path d="M60.0876 24.3498C60.0876 12.8893 65.7155 6.64746 78.4039 6.64746H90.9899V17.187H77.6876C74.2085 17.187 71.9573 19.6428 71.9573 23.7358V29.2614H90.2736V39.801H71.9573V79.2986H60.0876V39.801H47.2969V29.2614H60.0876V24.3498Z" fill="white"/>
<path d="M27.8926 0.50293C8.75774 28.6425 8.75774 60.3634 27.8926 88.5029H16.8415C-4.74924 60.3634 -4.74924 28.6425 16.8415 0.50293H27.8926Z" fill="white" fill-opacity="0.1"/>
</svg>
